<?xml version="1.0" encoding="UTF-8"?>
<svg id="Capa_1" data-name="Capa 1" xmlns="http://www.w3.org/2000/svg" viewBox="0 0 805.55 674.32">
  <defs>
    <style>
      .cls-1 {
        fill: #fff;
      }

      .cls-2 {
        fill: #80192c;
      }
    </style>
  </defs>
  <path class="cls-1" d="M26.04,416.21h487.5c1.39,0,5.54,4.29,6.05,5.95,1.12,3.68,1.16,14.35-1.51,17.32-.53.59-4.28,2.73-4.54,2.73H26.04v39.5c0,15.03,22.8,31.39,37.51,29.49h490.01c8.01.92,21.81,12.81,19.28,21.29-.39,1.31-4.41,4.72-5.31,4.72h-103.5l11.1,64.89,65.16.35c38.8,8.49,38.27,63.15-.42,71.1-120.68,1.55-241.6.18-362.38.69-41.54-5.12-44.09-63.77-2.71-71.78l66.23-.27,10.01-64.99H47.54C25.39,537.21.02,507.61,0,485.75V49.68C2.81,25.8,19.95,5.99,43.81,1.49,250.49-1.47,457.66,1.03,664.52.23c27.04,3.01,48.89,24.17,51.55,51.45l-.02,164.05c.42,12.7-22.5,2.19-24.81-2.23-.62-1.19-.87-2.57-1.12-3.88l-.54-155.46c-2.49-13.3-13.24-24.02-26.5-26.5l-607.59-.48c-12.16-.38-29.46,14.48-29.46,26.54v362.5ZM267.04,602.21h182l-11.14-64.86-160.85-.13-10.01,64.99ZM178.75,628.42c-12.33,5.54-6.78,19.85,5.75,19.83l350.57-.51c10.63-3.91,9.56-17.56-1.5-19.55l-354.81.23Z"/>
  <path class="cls-2" d="M92.77,71.45l130.79-.26c9.27,1.93,16.91,9.9,17.52,19.48l-.04,265.04c-1.51,11.35-11.5,18.76-22.47,19.53-39.05-2.94-83.63,3.81-122.02-.05-11.52-1.16-20.53-10.68-20.55-22.45l.04-263.05c1-8.9,8.18-16.25,16.74-18.26ZM191.74,118.43c-6.23,1.44-16.88,15.68-21.68,20.32-6.74,6.51-14.16,12.53-20.76,19.23-11.72,5.94-17.16-11.59-26.23-14.31-9.94-2.98-17.63,4.17-14.27,14.27,1.12,3.36,22.43,24.81,26.32,27.68,7.84,5.78,12.26,4.43,19.43-1.39,13.34-10.82,34.8-33.1,46.97-46.03,9.74-10.35,3.05-22.75-9.78-19.78ZM193.74,235.43c-1.69.39-2.48,1.34-3.73,2.27-12.51,9.28-24.42,27.41-36.96,37.04-16.1,12.37-21.21-13.27-33.52-13.61-8.89-.24-13.88,6.46-10.96,15.04.91,2.66,23.66,25.43,27.13,27.87,5.42,3.83,9.92,4.53,16.02,1.37,5.22-2.7,24.86-23.97,30.33-29.67,5.1-5.32,20.99-20.42,23.82-25.17,5.36-8.99-2.54-17.35-12.14-15.14Z"/>
  <path class="cls-2" d="M290.77,71.45l130.76-.24c8.32,1.03,14.57,6.87,17.72,14.28,1.83,90.56.23,181.53.8,272.24-1.99,10.49-11.32,16.64-21.49,17.51-39.58,3.4-83.95-2.62-124.04-.03-9.93-1.45-18.58-9.29-19.54-19.46l.04-267.04c1.04-9.21,7.32-14.6,15.74-17.26ZM309.38,146.56c-3.54,3.69-3.13,9.12-.35,13.15,2.37,3.44,23.66,24.65,27.07,26.93,5.8,3.87,12.6,3.76,17.95-.91,13.88-16.92,36.49-32.6,49.5-49.5,8.63-11.21-1.98-21.35-13.8-16.8-12.34,9.9-22.69,24.38-34.72,34.28-20.66,17.02-23.62-13.53-38.03-11.12-1.77.3-6.39,2.66-7.63,3.95ZM357.62,269.79c-5.74,3.85-6.9,9.26-14.97,8.35-10.38-1.18-16.92-22.52-29.98-15.8-7.06,3.63-6.94,11.48-2.62,17.36,3.09,4.21,20.46,21.49,24.66,24.34,6.65,4.51,12.95,4.62,19.36-.31,8.86-6.82,44.81-42.39,50.97-51.03,7.63-10.69-2.05-21.01-13.37-16.37l-34.04,33.45Z"/>
  <path class="cls-2" d="M491.77,71.45l129.68-.15c9.4,1.8,16.98,9.68,17.63,19.37-2.51,36.82,3.2,77.76,0,114.08-.75,8.55-6.02,12.8-12.72,17.28-30.72,20.52-67.75,29.34-99.99,45.01-8.94,4.34-15.24,9.08-16.32,19.68-2.58,25.49,1.95,55.01-.07,80.93-7.69,17.23-35.37,3.53-34.98-12.9l.04-265.04c1-8.9,8.18-16.25,16.74-18.26ZM589.74,118.43c-1.98.46-7.78,5.59-9.72,7.27-7.11,6.17-27.99,30.67-34.25,32.74-13.47,4.45-17.3-15.71-29.25-15.31-8.34.27-13.59,8.34-9.68,15.79,1.34,2.56,25.4,26.89,28.24,28.75,7.08,4.63,11.62,2.32,17.47-2.43,17.36-14.07,33.31-35.62,50.33-50.67,5.29-8.84-3.52-18.36-13.14-16.14Z"/>
  <path class="cls-1" d="M666.8,228.48c7.98-.28,26.24,13.08,34.21,17.26,19.28,10.09,38.76,18.76,59.5,25.5,14.37,4.66,40.88,6.31,43.43,24.57,2.15,15.4,1.7,37.17,1.13,52.96-3.03,84.4-32.64,164.93-110.03,206.97-28.67,15.57-36.93,12.38-63.94-4.1-86.8-52.97-108.81-152.97-102.12-248.97,1.91-27.44,23.22-24.6,44.57-31.43,19.38-6.21,37.53-14.02,55.5-23.5,8.96-4.73,28.92-18.94,37.75-19.26ZM720.69,501.86c46.5-46.87,61.84-122.86,56.39-187.19-.23-2.71-.91-7.3-2.59-9.41-2.95-3.72-20.56-6.95-26.21-8.79-15.42-5.01-30.77-10.42-45.25-17.75-6.62-3.35-29.89-18.92-34.62-19.2-6.48-.39-27.38,14.12-34.69,17.86-13.49,6.89-27.74,12.17-42.15,16.85-6.89,2.24-25.36,5.58-30.05,8.95-1.93,1.39-4.04,5.25-4.41,7.59-1.51,9.75-1.31,26.76-1.11,36.98,1.44,71.48,26.75,143.39,91.37,180.63,12.98,7.48,17.63,11.49,32.34,4,13.71-6.98,30.15-19.61,40.98-30.52Z"/>
  <path class="cls-1" d="M714.04,371.21c8.45-.46,16.11-.76,17.05,9.45,2.35,25.64-1.78,54.93-.14,80.96-1.1,8.09-7.76,12.48-15.41,13.59-30.64-2.07-64.84,2.74-95.04.04-9.5-.85-15.01-6.13-16.46-15.54,1.77-25.44-2.35-53.99-.04-79.05,1.17-12.78,12.89-8.29,14.05-9.45.94-.93-.3-22.19.12-26.38,4.06-40.58,53.72-60.21,82.39-28.63,5.45,6,13.49,21.56,13.49,29.51v25.5ZM641.04,371.21h41.5c1.75,0,6.81-5.58,7.29-7.71,4.9-21.76-10.9-47.88-34.84-36.84-6.85,3.16-13.95,13.64-13.95,21.05v23.5ZM656.39,399.56c-3.87,4.12-5.3,11.26-3.88,16.68.64,2.43,3.01,4.6,3.47,7.53,1.32,8.46-3.64,27.29,9.62,29.39,18.56,2.94,13.27-17.92,14.44-28.45.78-7.05,4.67-9.53,2.57-18.57-2.61-11.21-18.51-14.79-26.22-6.58Z"/>
</svg>