<?xml version="1.0" encoding="UTF-8"?>
<svg id="Capa_2" data-name="Capa 2" xmlns="http://www.w3.org/2000/svg" viewBox="0 0 713.26 659.87">
  <path d="M341.81.55c66.27-3.87,133.11,12.99,190.5,45.89,9.96,5.71,39.79,30.5,43.89,31.72,10.19,3.02,23.35-.62,34.54,1.28,73.12,12.41,119.18,47.95,91.9,126.76-12.38,35.76-21.66,26.4-21.59,69.58.1,60.05,2.67,101.96-20.66,158.76-77.77,189.34-322.64,255.82-488.44,135.42-15.66-11.37-46.78-46.45-56.35-51.09-11.87-5.75-32.88-4.89-46.81-8.9-61.99-17.85-83.82-60.02-58.38-120.58,6.22-14.8,27.12-36.4,28.99-42.64,4.74-15.84,1.58-59.58,5.26-82.29C68.16,119.22,196.22,9.05,341.81.55ZM139.66,500.72c-8.64-19.01-23.07-34.14-32.59-52.93C-64.07,109.81,447.57-128.63,615.26,182.34c13.85,25.69,20.04,53.17,31.76,79.57,21.66-12.21,8.37-37.3,1.04-56.67C592.81,59.3,425.61-10.52,278.1,28.36,105.37,73.89,8.82,266.65,78.07,433.03c5.76,13.83,41.11,85.2,61.59,67.69ZM376.44,78.95h-111.42c-1.42,0-25.52,6.96-25.84,11.9,20.67,4.29,32.33,5.1,51.71-3.9l-7.96,11.86c38.35-2.5,9.11,27.22,12.53,41.01,6.97,28.09,35.67-9.03,47.55-14.72,10.19-4.88,20.41-4.6,29.56-10.34l9.14-26.46-5.26-9.35ZM676.82,230.15c47.13-82.46,5.32-134.46-83.51-135.24,26.74,27.41,48.43,57.76,64.38,92.75,2.12,4.66,13.64,46.72,19.13,42.49ZM270.27,137.94c9.67-18.08-8.94-38.05-26.88-30.87-6.24,13.85,7.48,16.63,7.79,17.69,3.71,12.82-9.08,10.33-18.01,17.83-8.35,7.01-26.98,40.13-33.7,35.78,4.31-11.37-19.57-8.35-15.96-17.78,5.37-14.01,46.66-22.18,55.67-37.82l-15.94-.07,4.03-7.89c-11.64-.49-18.43-5.31-27.74,3.84l-2.49-8.18-17.52,4.36,11.89,5.9c-60.45,24.58-115.41,137.29-90.53,198.01,6.12,14.93,41.18,22.91,48.79,42.73,10.69-23.07-16.52-29.07-6.03-51.71-9.51,7.69-8.1,17.59-24.12,10.21-11.65-22.35,1.17-53.1,29.47-46.21l8.6,16.08c7.67-3.31,5.36-21.69,9.71-29.09,1.31-2.23,32.02-33.35,35.98-36.64,20.75-17.19,33.97-7.83,39.94-11.67,14.45-9.28-9.85-12.11-12-22.03,15.78.85,29.29,3.02,35.92-13.54l-8.11-26.33-15.85,4v-11.81s27.11-4.79,27.11-4.79ZM505.5,131.02c-13.23-7.24-25.96-11.25-41.42-8.18-4.64.92-28.6,23.8-29.44,26.33-6.28,18.88,17.85,33.09-24.36,51.15,27.24,16.56,5.51,24.82-15.91,17.89l.31,27.52c22.64,6.99,30.78-2.28,39.39-21.92,6.92-4.08,14.59,9.6,17.96-5.71l17.88,14.09-15.86,9.85c6.08.17,29.08,2.83,25.83-7.86,3.9-3.5-27-20.41-11.88-20.02,15.73,4.62,20.3,22.56,25.87,35.85l9.9-11.83c2.08,20.1,41.28,5.18,37.78,21.76-3.95,18.68-32.3,7.8-41.81,7.93-3.27.05-7.01,6.56-14.86,5.52-3.26-.43-19.69-8.92-21.03-11.23l2.06-11.81c-6.67-10.01-58.96,1.24-67.52,9.72-4.2,4.16-4.4,11.84-8.02,15.85-5.3,5.87-19.53,16.91-21.82,21.95-3.4,7.51-3.73,44.48-1.25,52.83,1.33,4.47,25.44,28.6,29.9,29.93,15.97,4.76,32.24-7.95,42.3-6.17,5.62,1,28.17,13.57,22.51,22.82,5.07,5.09,94.23-49.54,103.37-61.68l-27.75-49.73c18.34,8.98,21.84,29.44,34.05,43.72l29.56-21.85c-10.14-5.04-19.78-13.05-19.86-25.82,3.73-3.69,64.01,42.17,45.76-35.88-10.93-46.77-40.49-91.32-75.65-123.29-3.15,13.46-13.19,5.63-22.93,8.82-10.66,3.49-34.32,22.89-23.08-.53ZM135.7,516.7c100.66,114.03,267.67,133.59,395.16,50.93,97.2-63.02,150.32-178.51,134.02-293.7-24.53,11.31-13.48,36.29-15.93,57.64-26.15,227.42-265.34,358.46-457.21,214.58-4.5-3.37-33.49-24.84-28.18-29.48l51.25-3.54c6.63,27.91,22.07,53.68,52.19,59.18l-12.22-21.6c18.27-3.77,23.73-47.7,29.05-53.06,3.13-3.15,71.37-24.88,83.64-29.76,33.22-13.23,66.58-26.55,98.44-42.76,11.11,18.42-3.61,30.61-3.68,45.19-.04,9.21,7.29,59.9,14.13,62,13.75-.95,25.57-5.89,35.12-15.91,11.11-11.65,16.51-34.55,23.23-42.44,3.72-4.37,15.07-6.24,17.69-10.14,6.77-10.09.73-26.74,2.84-34.86,5.57-21.46,42.26-40.21,45.38-66.27l-5.33-9.11-15.9,8.08-4.04-8.37c-130.1,87.23-281.91,148.13-439.67,163.39ZM258.06,386.34c-3.19-3.25-16.24-6.92-22.65-11.19-6.12-4.07-10.75-12.84-16.32-15.49-8.89-4.23-22.16-2.31-31.42-8.44l-28.06,14.27c-.86,6.7,9.73,3.86,11.79,10.29,3.32,10.36-16.99,20.02-5.79,49.33,9.85,25.75,31.04,40.85,42.3,63.09,7.54,4.87,78.29-14.1,88.18-20.07,8.36-5.05,17.17-22.76,26.35-29.61-1.38-23.52-58.87-27.88-63.16-33.54-.59-.78,6.05-11.25-1.21-18.63ZM99.87,500.72l-32.49-57-27.12-78.24c-49.66,71.3-27.5,125.34,59.62,135.24ZM585.35,449.05c-13.84-1.87-31.26,40.08-27.84,43.71,18.73-2.95,18.29-30.93,27.84-43.71Z"/>
  <path d="M700.74,321.68c7.35,3.47,10.79,23.18,11.51,30.27,15.38,150.69-148.58,271.93-281.28,298.82-131.12,26.57-278.34-2.64-355.03-120.14-1.45-4.92,1-8.11,5.98-5.98,7.69,3.28,37,38.55,47.92,47.6,150.37,124.6,391.87,80.02,513.24-63.5,21.29-25.18,55.43-75.65,57.65-117.43v-69.63Z"/>
  <path d="M473.96,158.55l19.85-3.96-19.91,7.94,4.02,11.89-27.84,3.99c-2.9-11.85,9.73-7.49,13.87-15.89,3.66-7.43-.13-17.99,8.01-23.87l2,19.89Z"/>
  <path d="M577.37,206.3c-3.07,17.48,11.36,30.51,11.92,47.73-19.41-4.32-14.98-28.65-27.77-41.83l15.85-5.9Z"/>
  <path d="M521.31,210.76l.54,7.19,5.78.32,2.03-7.98,7.92-.03c-3.26,12.93,6.97,11.49,11.96,19.85l-39.76.03c-1-9.03-.4-21.51,11.53-19.38Z"/>
</svg>