<?xml version="1.0" encoding="UTF-8"?>
<svg id="Capa_2" data-name="Capa 2" xmlns="http://www.w3.org/2000/svg" viewBox="0 0 417.64 409.54">
  <defs>
    <style>
      .cls-1 {
        fill: #fff;
      }
    </style>
  </defs>
  <path class="cls-1" d="M196.81.27c8.18-.93,14.95.57,22.34,3.94,24.13,15.65,52.73,28.49,76.15,44.84,10.78,7.53,18.48,17.03,19.57,30.72,2.46,31.04-1.89,65.28-.04,96.66-2.35,18.05-15.13,26.42-29.13,35.3-18.87,11.97-43.44,27.49-63.04,37.52-15.41,7.89-26.22,7.15-41.4-.51-21.63-10.92-53.01-29.56-72.98-43.3-11.58-7.97-17.65-17.87-18.96-32.11,1.59-29.55-2.01-61.1,0-90.41.84-12.32,5.08-22.24,14.55-30.23,26.31-13.8,53.33-35.7,79.73-48.33,3.88-1.86,8.95-3.59,13.22-4.07ZM181.65,105.32c.94-2.06.12-4.89.59-7.26,1.39-6.98,8.52-16.34,15.87-17.13,9.09-.97,15.13.2,20.85,7.53,9.21,11.8,5.18,28.8-8.66,34.68l.05,35.99c.54,2.79,6.01,4.34,8.26,6.67,5.46,5.63,6.11,15.56,4.29,22.81h20.03c7.26,0,16.55-9.58,16.8-16.98l-.04-125.49-48.41-28.59c-6.06-2.54-13.73-2.86-19.57.43-23.73,15.44-50.41,28.23-73.72,44.12-8.41,5.74-12.25,11.04-12.98,21.59-2.1,30.37.82,64.39,1.06,94.87,3.27,12.33,17.06,16.28,26.48,22.62v-78.56c-16.63-5.86-17.75-28.37-4.32-38.5,6.43-4.86,17.71-4.67,23.98.37,4.18,3.36,7.27,8.32,8.44,13.56.48,2.17-.25,4.3.61,6.46,1.4,3.54,9.81,12.59,9.81,12.59M274.76,55.05v121.38c0,10.46-15.92,23.2-25.31,25.75-9.19,2.5-45.06,2.5-53.78-.87-19.26-7.44-17.06-32.49-.39-41.51v-37.06s-6.86-3.21-6.86-3.21c-3.36,4.3-11.93,17.79-17.68,17.22-5.96-.59-12.14-12.73-16.18-16.93l-7.11,3.33.54,88.33,44.77,25.75c6.35,2.51,14.31,2.57,20.47-.54,22.44-14.61,46.92-26.92,69.32-41.46,11.6-7.53,16.27-10.77,17.38-25.83,1.7-23.1,1.5-59.34,0-82.56-.3-4.59-1.17-10.7-3.31-14.76-4.28-8.1-14.27-12.71-21.86-17.03ZM138.64,96.04c-7.26,1.48-5.32,14.23,2.1,13.23,7.82-1.05,6.67-15.02-2.1-13.23ZM201.49,96.04c-7.26,1.48-5.32,14.23,2.1,13.23,7.82-1.05,6.67-15.02-2.1-13.23ZM200.68,174.63c-4.93,1.49-5.53,11.02.19,12.84,11.68,3.73,11.53-16.39-.19-12.84Z"/>
  <g>
    <path class="cls-1" d="M60.96,356.73l-.81-.83c-.65-2.34,4.49-2.53,4.9-6.5.79-7.79-1.16-16.1-.52-23.96l-1.38-18.75-20.91,50.33-4.65-.27c-6.76-15.87-14.18-31.56-20.35-47.68-.3-.79.52-1.58-1.14-1.28-.06,5.31.22,10.74.02,16.06s-1,11.07-1.13,16.27c-.06,2.45-.3,6.44.05,8.69.57,3.62,4.37,3.64,5.15,5.19,2.23,4.43-7.22,2.37-9.35,2.39-1.91.02-9.93,1.1-10.83-.17l.02-2.23c1.64-.98,3.52-1.88,4.64-3.52,3.42-4.97,3.07-31.88,3.24-39.19.08-3.67,1.62-9.42-.1-12.91-1.48-3.01-6.67-3.02-6.44-5.56l.94-1.29c3.88.66,22.19-1.13,23.99.6l16.86,38.87,1.22.7c0-.69.13-1.38.43-2,5.4-11.17,9.38-23.86,14.88-34.63,1.21-2.36,1.05-3.35,3.97-3.65,3.57-.36,15.46-.42,19.1,0,5.63.67-2.31,4.78-3.26,6.04s-1.55,2.93-1.44,4.59c2.3,14.39.56,31.22,3.14,45.31.2,1.08.64,3.43,1.22,4.21,1.14,1.52,4.26.82,4.19,3.79-.04.36-1.05,1.34-1.16,1.34h-24.48Z"/>
    <path class="cls-1" d="M168.19,291.54l23.31-.1c50.88-3.64,56.77,64.13,4.35,65.34l-28.32-.57c-2.22-1.5,1.91-3.12,2.76-3.83,2.62-2.21,2.77-3.93,3.01-7.32,1.03-14.43-.81-30.06-.02-44.62.85-5.16-8.58-4.83-5.08-8.89ZM189.94,299.15l-.65.43c-.59,12.55-.22,25.22-.31,37.77-.02,2.53-.59,5.69-.51,8.23.03.88.51,3.97,1.09,4.38,20.43,1.12,27.4-9.64,26.11-28.88-1-14.94-10.64-23.57-25.73-21.93Z"/>
    <path class="cls-1" d="M260.84,318.93c.53,1.7,9.6.63,11.42,0s3.35-2.07,4.64-3.52c1.8-2.03.6-3.41,4.61-2.74l-.55,22.3-3.29-.23c-.9-8.55-9.96-8.58-16.59-7.41l-.27,22.02c6.28,1.61,18.35.3,23.43-3.75,1.3-1.03,8.17-11.64,9.24-5.99.25,1.3-2.41,15.83-2.98,16.6-.42.55-1,.57-1.62.56h-46.83c-8.95-1.75,4.23-4.51,3.04-8.98-1.12-14.84,1.42-31.66-.03-46.25-.11-1.13-.56-3.39-1.14-4.3-1.34-2.08-5.68-1.89-4.6-5.26l48.46-.53c.48.01.78.2,1.09.55,1.45,1.69,1.58,14.01,1.65,16.89-4.87,2.68-4.24-1.6-6.03-4.35-1.92-2.95-8.55-6.55-11.94-6.55h-10.88l-.82.82v20.12Z"/>
    <path class="cls-1" d="M413.68,294.18c-.57,4.25.77,10.43,0,14.42-.24,1.27-2.43,2.19-3.27,1.66-1.72-1.07-3.33-8.37-8.21-10.86-11.25-5.75-22.44,4.86-12.18,12.73,9.23,7.08,24.33,7.23,27.13,21.69,4.93,25.43-29.35,29.13-45.81,20.11-.46-.73-.22-16.04.31-17.19.71-1.53,2.28-1.75,3.44-.43.89,1.01.98,3.45,1.66,4.87,3.88,8.17,13.39,11.64,21.71,7.68,5.61-2.67,5.39-9.66.81-13.33-8.9-7.14-25.54-6.17-27.41-22.09-2.01-17.15,13.1-25.22,28.36-22.92,4.7.71,8.9,3.21,13.46,3.67Z"/>
    <path class="cls-1" d="M368.54,291.46c1.28,3.36-2.6,3.53-4.65,5.41-1.22,1.12-2.34,3.05-3.07,4.54-7.94,16.33-12.65,36.29-20.55,52.88-.58.83-.95,1.87-1.99,2.27-.83.32-9,.35-10.29.2-2.1-.25-2.22-1.74-3.05-3.47-8.35-17.29-13.59-36.4-21.8-53.8-.6-2.72-7.59-4.23-6.9-6.59.63-1.07,1.8-1.31,2.95-1.44,8.33-.97,18.9.98,27.48,0,1.43,5.66-5.25,2.97-5.9,7.32,3.94,14.57,11.2,28.05,15.64,42.5l1.13.76c.43-2.5,1.3-4.98,2.17-7.35,3.14-8.56,11.76-26.09,12.94-33.84,1.04-6.84-4.63-3.46-4.22-9.39h20.12Z"/>
    <path class="cls-1" d="M135.2,291.46c.92,5.53-4.65,3.04-5.4,9.03s-.31,15.09-.28,21.16c.05,11.58,4.3,26.87-7.51,34.13-6.25,3.84-19.22,4.56-25.72.97-7.72-4.26-4.25-14.91,4.56-13,1.01,4.79,1.82,9.88,7.91,9.12,4.75-.59,5.48-5.45,5.78-9.45,1.04-13.82-.78-28.98-.07-42.94.89-4.36-9.08-5.29-6.79-8.52l27.51-.51Z"/>
    <path class="cls-1" d="M89.52,402.42c1.44.13.88.03,1.08-.82.97-4.24,1.97-8.49,2.75-12.76l4.06.49,3.26,13.63c1.13-2.26,2.64-13.45,4.44-14.06.85-.29,1.99-.03,2.9-.09l-4.98,19.22c-.71,1.43-2.8.91-4.21.84l-3.59-14.09-3.47,13.83-3.8.25-5.51-20.05,4.09.53,2.98,13.07Z"/>
    <path class="cls-1" d="M340.8,395.89c-2.24,2.41-3.09,6.44-4.74,9.11-.75,1.23-2.09.91-3.16.14l-4.61-9.25-.55,13.05h-3.27s.58-20.09.58-20.09l4.05.5,5.43,11.43c.59-.18,3.93-9.95,5.14-11.19s2.83-.73,4.39-.78l.55,20.12c-1.38-.35-2.94,1.04-3.81-.27v-12.78Z"/>
    <path class="cls-1" d="M370.71,388.82c.76.01,1.59-.13,2.33.11,2.16.72,8.83,11.57,10.45,14.03l-.2-13.26c.45-1.36,2.56-.83,3.73-.89v20.12l-3.7-.11-9.35-13.48v13.6h-3.26v-20.12Z"/>
    <path class="cls-1" d="M29.54,388.4c13.68-1.94,14.72,20.41,1.97,21.05-12.27.61-13.68-19.39-1.97-21.05ZM27.15,404.41c5.54,5.32,12.82-3.48,8.22-10.13-5.23-7.56-14.51,4.09-8.22,10.13Z"/>
    <path class="cls-1" d="M288.47,388.4c13.09-1.55,14.52,20.82.88,21.03-11.69.17-13.21-19.57-.88-21.03ZM288.84,391.78c-6.88.42-6.86,14.39.56,14.36,7.99-.02,7.53-14.85-.56-14.36Z"/>
    <path class="cls-1" d="M183.07,408.94v-20.12h8.97c3.92,0,7.22,6.65,7.28,10.12s-3.4,10.01-7.28,10.01h-8.97ZM186.33,405.68c12.38,1.99,12.09-15.29,0-13.6v13.6Z"/>
    <path class="cls-1" d="M142.54,388.82c6.04.89,7.21,9.11,1.87,11.73l3.84,8.39c-.97-.18-3.04.34-3.72-.09-.39-.24-2.59-6.26-3.29-7.19-.56-.74-3.46-.61-3.79.55l.47,6.72h-3.81s0-20.12,0-20.12c2.63.27,5.89-.37,8.43,0ZM137.37,392.08l.51,5.75c8.98,1.88,8.18-7.49-.51-5.75Z"/>
    <path class="cls-1" d="M129.22,408.94l-4.3-.05-1.08-4.53-7.32-.23-2.06,4.74-3.73.07c.85-2.63,5.89-19.09,7.05-19.87.87-.59,3.75-.57,4.32.62l7.13,19.25ZM122.69,401.33c-1.08-2.43-1.46-5.17-2.45-7.62-.21-.52-.07-1.24-.8-1.08l-2.72,8.7h5.98Z"/>
    <polygon class="cls-1" points="363.64 388.82 363.64 392.08 355.49 392.08 355.49 396.98 363.1 396.98 363.1 400.24 355.72 400.75 355.49 405.68 364.19 405.68 364.19 408.94 351.68 408.94 351.68 388.82 363.64 388.82"/>
    <polygon class="cls-1" points="166.2 388.82 166.2 392.08 158.05 392.08 158.05 396.98 165.66 396.98 165.66 400.24 158.05 400.24 157.63 404.89 158.32 405.68 166.75 405.68 166.75 408.94 154.24 408.94 154.24 388.82 166.2 388.82"/>
    <path class="cls-1" d="M15.5,389.95l-1.06,3.76c-1.43-1.7-8.18-2.84-8.17.27.02,3.78,10.12,2,9.85,9.79-.19,5.58-6.66,6.39-10.92,4.89-3.28-1.16-4.33-2.61-1.36-5.15,1.39,2.74,8.59,3.57,8.82.18.21-3.17-7.68-3.41-9.56-7.06-3.63-7.03,7.38-10.7,12.4-6.68Z"/>
    <polygon class="cls-1" points="257.04 388.82 257.04 392.08 248.88 392.08 248.88 396.98 256.49 396.98 256.49 400.78 248.88 400.24 248.88 405.68 257.31 405.68 258.12 408.94 245.07 408.94 245.07 388.82 257.04 388.82"/>
    <path class="cls-1" d="M314.42,388.82c1.03.21,3.44,2.07,3.95,3.12,3.22,6.58-3.13,10.56-9.12,9.94l-.25,7.1-3.55.51v-20.67c2.66.36,6.5-.5,8.97,0ZM309.25,392.08v6.27c8.24,1.48,8.17-7.37,0-6.27Z"/>
    <path class="cls-1" d="M217.06,388.82c1.1.26.51,2.92.21,3.2-.69.62-6.97-.7-7.86.58l-.24,4.39h7.61v3.27s-7.38.51-7.38.51l-.24,4.93h8.43l.82,3.26h-13.05c.82-6.34.2-12.67.22-19.01,0-.63.04-.7.59-1.11h10.88Z"/>
    <path class="cls-1" d="M230.94,403.5l5.17-13.59c.89-1.45,2.59-1.12,4.07-1.09l-7.58,20.39c-.64-.17-2.14.17-2.49.06-1.51-.48-7.02-17.72-7.87-20.44,1.71-.08,3.41-.33,4.28,1.42l4.43,13.25Z"/>
    <polygon class="cls-1" points="57.97 388.82 57.97 392.08 50.35 392.08 50.35 397.52 56.88 397.52 56.89 400.47 50.35 400.78 50.35 408.94 47.33 409.35 46.54 408.67 46.54 388.82 57.97 388.82"/>
    <path class="cls-1" d="M78.63,388.82v3.27s-5.98,0-5.98,0v16.59c-.88,1.23-2.49.78-3.81.82v-17.41h-5.99s0-3.26,0-3.26h15.77Z"/>
    <polygon class="cls-1" points="408.79 388.82 408.79 392.09 402.26 392.08 402.26 408.94 399 408.94 399 392.08 392.47 392.09 392.47 388.82 408.79 388.82"/>
    <path class="cls-1" d="M267.37,405.68h8.7v3.26h-11.97v-20.12c1.07.08,3.28-.5,3.74.89l-.48,15.97Z"/>
  </g>
</svg>