<?xml version="1.0" encoding="UTF-8"?>
<svg id="Capa_2" data-name="Capa 2" xmlns="http://www.w3.org/2000/svg" viewBox="0 0 559.19 627.89">
  <path d="M266.4.66c20.14-2.28,36.83,1.4,55.05,9.7,59.47,38.57,129.93,70.2,187.62,110.5,26.56,18.55,45.54,41.97,48.21,75.68,6.05,76.48-4.65,160.85-.09,238.16-5.8,44.48-37.29,65.1-71.77,86.97-46.5,29.5-107.04,67.73-155.34,92.45-37.97,19.43-64.61,17.62-102.01-1.26-53.3-26.91-130.63-72.83-179.82-106.69-28.53-19.64-43.48-44.03-46.71-79.12,3.91-72.82-4.94-150.55,0-222.78,2.08-30.36,12.52-54.8,35.85-74.5C102.21,95.79,168.79,41.82,233.84,10.69c9.55-4.57,22.05-8.83,32.57-10.03ZM229.05,259.5c2.32-5.08.3-12.04,1.46-17.9,3.43-17.19,21-40.27,39.1-42.21,22.4-2.4,37.28.49,51.38,18.56,22.69,29.09,12.76,70.97-21.33,85.45l.12,88.68c1.33,6.89,14.8,10.69,20.35,16.43,13.44,13.88,15.05,38.35,10.58,56.21h49.36c17.9,0,40.77-23.6,41.41-41.84l-.09-309.22-119.27-70.44c-14.93-6.27-33.83-7.04-48.23,1.06-58.47,38.04-124.22,69.57-181.66,108.72-20.73,14.13-30.19,27.19-31.99,53.19-5.18,74.83,2.01,158.66,2.6,233.75,8.05,30.38,42.05,40.12,65.24,55.75v-193.59c-40.97-14.45-43.73-69.89-10.65-94.86,15.85-11.96,43.63-11.51,59.1.92,10.31,8.28,17.9,20.51,20.79,33.42,1.19,5.34-.61,10.59,1.49,15.93,3.44,8.73,24.16,31.03,24.16,31.03M458.48,135.64v299.09c0,25.79-39.23,57.17-62.37,63.46-22.64,6.16-111.04,6.15-132.51-2.14-47.45-18.33-42.03-80.05-.95-102.29v-91.33s-16.91-7.91-16.91-7.91c-8.29,10.59-29.38,43.84-43.56,42.43-14.68-1.46-29.9-31.37-39.87-41.73l-17.51,8.19,1.33,217.65,110.31,63.44c15.64,6.19,35.25,6.33,50.44-1.32,55.3-36,115.6-66.33,170.8-102.16,28.59-18.56,40.1-26.54,42.83-63.65,4.18-56.92,3.7-146.21,0-203.42-.73-11.3-2.89-26.37-8.17-36.36-10.54-19.96-35.17-31.31-53.86-41.96ZM123.07,236.64c-17.89,3.64-13.11,35.05,5.18,32.6,19.26-2.58,16.43-37-5.18-32.6ZM277.94,236.64c-17.89,3.64-13.11,35.05,5.18,32.6,19.26-2.58,16.43-37-5.18-32.6ZM275.95,430.29c-12.15,3.68-13.62,27.15.47,31.65,28.79,9.19,28.41-40.39-.47-31.65Z"/>
</svg>